<?xml version="1.0" standalone="no"?>
<!DOCTYPE svg PUBLIC "-//W3C//DTD SVG 20010904//EN"
 "http://www.w3.org/TR/2001/REC-SVG-20010904/DTD/svg10.dtd">
<svg version="1.0" xmlns="http://www.w3.org/2000/svg"
 width="512.000000pt" height="512.000000pt" viewBox="0 0 512.000000 512.000000"
 preserveAspectRatio="xMidYMid meet">

<g transform="translate(0.000000,512.000000) scale(0.100000,-0.100000)"
fill="#000000" stroke="none">
<path d="M2148 5103 c-9 -10 -31 -64 -49 -120 l-33 -103 -252 0 c-296 0 -284
4 -284 -103 l0 -67 -387 0 c-354 0 -392 -2 -428 -19 -51 -23 -101 -79 -114
-128 -15 -53 -15 -4363 0 -4416 13 -49 63 -105 114 -128 38 -18 120 -19 1845
-19 1725 0 1807 1 1845 19 51 23 101 79 114 128 15 53 15 4363 0 4416 -13 49
-63 105 -114 128 -36 17 -74 19 -427 19 l-388 0 0 68 c0 106 11 102 -286 102
l-250 0 -33 103 c-18 56 -40 110 -49 120 -14 16 -47 17 -412 17 -365 0 -398
-1 -412 -17z m777 -213 c23 -70 43 -114 55 -120 11 -6 118 -10 254 -10 l236 0
0 -305 0 -305 -910 0 -910 0 0 305 0 305 236 0 c136 0 243 4 254 10 12 6 32
50 55 120 l37 110 328 0 328 0 37 -110z m-1395 -748 c0 -120 -122 -107 1030
-107 1152 0 1030 -13 1030 107 l0 68 218 -2 217 -3 0 -1850 0 -1850 -1465 0
-1465 0 -3 1840 c-1 1012 0 1846 3 1853 3 9 57 12 220 12 l215 0 0 -68z"/>
<path d="M2460 4878 c-146 -77 -156 -284 -19 -375 37 -25 52 -28 120 -28 70 0
81 3 121 30 126 89 124 278 -4 362 -59 40 -155 44 -218 11z"/>
<path d="M3200 3405 c-286 -52 -574 -238 -794 -512 -65 -81 -40 -73 -291 -99
-93 -9 -169 -22 -183 -30 -24 -16 -202 -360 -202 -392 0 -11 9 -27 20 -37 17
-16 34 -17 140 -13 l121 5 -24 -26 c-45 -49 -57 -75 -57 -125 l0 -49 192 -193
c200 -202 228 -222 292 -210 18 4 52 23 76 43 l43 37 -7 -118 c-8 -132 0 -156
55 -156 29 0 350 160 382 190 14 13 23 57 41 220 22 201 23 203 52 227 183
152 281 253 371 388 139 206 211 459 200 700 -6 127 -11 143 -44 156 -36 13
-297 9 -383 -6z m307 -227 c-3 -68 -11 -147 -17 -176 l-12 -52 -40 62 c-49 76
-142 169 -223 223 l-60 40 60 11 c33 7 114 12 179 13 l119 1 -6 -122z m-444 3
c157 -72 286 -211 342 -371 13 -35 11 -41 -22 -101 -137 -246 -385 -471 -723
-652 l-86 -46 -178 178 -179 179 53 99 c149 280 349 519 540 647 78 53 158 96
177 96 7 0 41 -13 76 -29z m-748 -1081 l170 -170 -48 -47 -47 -48 -170 170
c-94 93 -170 174 -170 179 0 14 72 86 85 86 5 0 87 -76 180 -170z"/>
<path d="M2979 3047 c-96 -51 -133 -179 -79 -274 35 -64 89 -96 164 -101 81
-5 139 25 181 93 83 134 -12 305 -170 305 -35 0 -66 -8 -96 -23z"/>
<path d="M2692 2557 c-129 -129 -143 -155 -104 -190 38 -35 61 -22 189 106
130 129 144 155 105 190 -39 35 -62 23 -190 -106z"/>
<path d="M1896 1994 c-230 -134 -365 -299 -396 -484 -16 -97 -10 -188 15 -206
26 -19 175 -18 250 1 163 43 314 176 430 381 25 43 45 87 45 98 0 11 -47 67
-112 133 -129 131 -136 133 -232 77z"/>
</g>
</svg>
